<?xml version="1.0" encoding="utf-8"?>
<!-- Generator: Adobe Illustrator 25.0.0, SVG Export Plug-In . SVG Version: 6.00 Build 0)  -->
<svg version="1.1" id="Layer_1" xmlns="http://www.w3.org/2000/svg" xmlns:xlink="http://www.w3.org/1999/xlink" x="0px" y="0px"
	 viewBox="0 0 207 61" style="enable-background:new 0 0 207 61;" xml:space="preserve">
<style type="text/css">
	.st0{fill:#1B75BB;}
	.st1{fill:#00A551;}
</style>
<g>
	<path class="st0" d="M42.3,46c-1.6-1.1-3-2.1-4.4-3.1c-0.5-0.3-0.9-0.7-1.3-1c-4.4-1-7.8-3.2-9.2-4.3c-0.2-0.1-0.4-0.2-0.5-0.2
		c-0.2,0-0.4,0.1-0.6,0.4L22.6,44c-0.3,0.4-0.1,0.8,0.1,1c1.5,1.5,8.1,5.9,17.6,6c2.8,0,5.3-0.3,7.5-1c-1.6-1-3.1-2.1-4.7-3.3
		C42.7,46.4,42.4,46.2,42.3,46z"/>
	<path class="st0" d="M41.7,21.2c-7.9-1.9-10.4-3.4-10.4-6.9c0-3.2,3.7-5.8,8.9-5.8c6.1,0,10.2,2.7,11.9,3.9
		c0.2,0.1,0.4,0.2,0.6,0.2c0.1,0,0.3-0.1,0.4-0.4l2.9-6.6c0.1-0.4,0.1-0.8-0.2-1C54.6,3.5,49.1,0.1,40.7,0
		C29.7-0.1,22.5,6.4,22.8,15c0.2,8.2,5.5,12.7,16.9,14.9c8,1.6,10.2,3.8,10.2,6.7c0,1.3-0.5,2.4-1.3,3.3c1.8,1.2,3.6,2.4,5.5,3.7
		l1.7,1.2c1.8-2.4,2.7-5.4,2.6-8.7C58.2,27.6,52.8,23.8,41.7,21.2z"/>
	<path class="st0" d="M87.6,0C72.3,0,62.1,10.2,62.1,25.5c0,15.3,10.2,25.5,25.5,25.5S113,40.8,113,25.5C113,10.2,102.9,0,87.6,0z
		 M87.6,42.4c-10.2,0-17-6.8-17-17s6.8-17,17-17c10.1,0,16.9,6.8,16.8,17C104.4,35.6,97.7,42.4,87.6,42.4z"/>
	<path class="st0" d="M124.3,0.6h-7.2c-0.4,0-0.7,0.3-0.7,0.7l0.1,48.3c0,0.4,0.2,0.6,0.6,0.6h7.2c0.4,0,0.6-0.3,0.6-0.6V1.4
		C125,0.9,124.7,0.6,124.3,0.6z"/>
	<path class="st0" d="M155.4,42.6h-16.1V1.4c0-0.4-0.3-0.7-0.7-0.7h-7.2c-0.4,0-0.6,0.3-0.6,0.7v48.3c0,0.4,0.3,0.6,0.7,0.6h24
		c0.4,0,0.6-0.3,0.6-0.6v-6.4C156.1,42.9,155.8,42.6,155.4,42.6z"/>
	<path class="st0" d="M204.9,49.5L186.1,1.4c-0.1-0.4-0.5-0.6-0.9-0.6h-7.4c-0.4,0-0.8,0.2-1,0.6l-18.7,48.1c-0.2,0.5,0,0.8,0.5,0.8
		h7.2c0.4,0,0.6-0.1,0.7-0.5l5-12.7h20l4.9,12.7c0.1,0.3,0.4,0.5,0.7,0.5h7.2C204.8,50.3,205,50,204.9,49.5z M174.2,29.8l7.2-18.4
		l7.2,18.4H174.2z"/>
</g>
<path class="st1" d="M85.1,55.5c-0.6,0.1-1.2,0.1-1.8,0.1c-0.3,0-0.6,0-0.9,0c-1.8,0-3.7-0.2-5.7-0.6c-1-0.2-2-0.4-3-0.7
	c-5-1.3-10.6-3.7-16.8-7.9c-0.9-0.6-1.8-1.2-2.7-1.8l-0.5-0.4l0,0c-18-12.1-33.7-22.2-45-11.3c-2.4,1.8-4.5,6.3-3.9,10.4
	c0,0.3,0,0.6,0,0.8c0.2,4.4,3.7,7.8,7.8,7.5c4.1-0.2,7.3-4,7-8.4c-0.1-1.6-0.6-3.1-1.5-4.4c0.7-0.8,1.5-1.5,2.7-1.9
	c8.6-2.9,13.4,2.6,21.8,8.3c2,1.3,16.6,13.3,33.9,15.4c1.7,0.2,3.5,0.3,5.3,0.3h0.1c0.1,0,0.2,0,0.2,0c0,0,0.1,0,0.1,0
	c0.9,0,1.8-0.1,2.7-0.1c0.1,0,0.3,0,0.4,0c14-1.5,25.5-12.3,29-26.6C109.7,46.6,98.4,55.3,85.1,55.5z"/>
</svg>
