<?xml version="1.0" encoding="utf-8"?>
<!-- Generator: Adobe Illustrator 25.0.0, SVG Export Plug-In . SVG Version: 6.00 Build 0)  -->
<svg version="1.1" id="Layer_1" xmlns="http://www.w3.org/2000/svg" xmlns:xlink="http://www.w3.org/1999/xlink" x="0px" y="0px"
	 viewBox="0 0 207 61" style="enable-background:new 0 0 207 61;" xml:space="preserve">
<style type="text/css">
	.st0{fill:#009345;}
	.st1{fill:#F6921E;}
</style>
<g>
	<path class="st0" d="M40.2,46c-1.6-1.1-3-2.1-4.5-3.1c-0.5-0.3-0.9-0.7-1.3-1c-4.4-1-7.9-3.2-9.2-4.3c-0.2-0.1-0.4-0.2-0.5-0.2
		c-0.2,0-0.4,0.1-0.6,0.4l-3.6,6.2c-0.3,0.4-0.1,0.8,0.1,1c1.5,1.5,8.1,6,17.7,6c2.8,0,5.3-0.3,7.5-1c-1.6-1-3.2-2.1-4.7-3.3
		C40.7,46.3,40.4,46.1,40.2,46z"/>
	<path class="st0" d="M39.7,21.1c-7.9-1.9-10.4-3.4-10.4-6.9c0-3.2,3.7-5.8,9-5.8c6.1,0,10.2,2.7,11.9,3.9c0.2,0.1,0.4,0.2,0.6,0.2
		c0.1,0,0.3-0.1,0.4-0.4l2.9-6.6c0.1-0.4,0.1-0.8-0.2-1c-1.4-1.3-6.8-4.7-15.3-4.8c-11-0.1-18.2,6.4-17.9,15.1
		c0.2,8.3,5.5,12.7,16.9,14.9c8,1.7,10.3,3.8,10.3,6.7c0,1.3-0.5,2.4-1.3,3.3c1.8,1.2,3.6,2.4,5.5,3.7l1.7,1.2
		c1.8-2.4,2.7-5.4,2.6-8.7C56.2,27.5,50.7,23.6,39.7,21.1z"/>
	<path class="st0" d="M85.7-0.2C70.3-0.2,60.1,10,60.1,25.3c0,15.4,10.3,25.5,25.6,25.5c15.4,0,25.5-10.2,25.5-25.5
		C111.2,10,101.1-0.2,85.7-0.2z M85.7,42.3c-10.2,0-17-6.8-17-17c0-10.2,6.8-17,17-17c10.1,0,16.9,6.8,16.9,17
		C102.6,35.5,95.8,42.3,85.7,42.3z"/>
	<path class="st0" d="M122.5,0.4l-7.2,0c-0.4,0-0.7,0.3-0.7,0.7l0.1,48.4c0,0.4,0.2,0.6,0.6,0.6l7.2,0c0.4,0,0.6-0.3,0.6-0.6l0-48.4
		C123.2,0.7,122.9,0.4,122.5,0.4z"/>
	<path class="st0" d="M153.6,42.5l-16.1,0l0-41.4c0-0.4-0.3-0.7-0.7-0.7l-7.2,0c-0.4,0-0.6,0.3-0.6,0.7l0,48.4
		c0,0.4,0.3,0.6,0.7,0.6l24.1,0c0.4,0,0.6-0.3,0.6-0.6v-6.4C154.4,42.8,154.1,42.5,153.6,42.5z"/>
	<path class="st0" d="M203.3,49.4L184.5,1.1c-0.1-0.4-0.5-0.6-0.9-0.6l-7.5,0c-0.4,0-0.8,0.2-1,0.6l-18.8,48.3
		c-0.2,0.5,0,0.8,0.5,0.8h7.2c0.4,0,0.6-0.1,0.7-0.5l5-12.7l20.1,0l5,12.7c0.1,0.3,0.4,0.5,0.7,0.5l7.2,0
		C203.3,50.2,203.5,49.9,203.3,49.4z M172.5,29.6l7.2-18.4l7.2,18.4L172.5,29.6z"/>
</g>
<path class="st1" d="M83.2,55.5c-0.6,0.1-1.2,0.1-1.8,0.1c-0.3,0-0.6,0-0.9,0c-1.8-0.1-3.7-0.2-5.8-0.6c-1-0.2-2-0.4-3-0.7
	c-5-1.3-10.6-3.8-16.8-7.9c-0.9-0.6-1.8-1.2-2.7-1.8l-0.5-0.4l0,0C33.6,32,17.8,21.9,6.5,32.8C4.2,34.7,2,39.2,2.6,43.2
	c0,0.3,0,0.6,0,0.8c0.2,4.4,3.7,7.8,7.9,7.6c4.1-0.2,7.3-4,7.1-8.4c-0.1-1.7-0.6-3.2-1.5-4.4c0.7-0.8,1.5-1.5,2.7-1.9
	c8.6-2.9,13.4,2.6,21.9,8.3c2,1.3,16.6,13.3,34,15.4c1.7,0.2,3.5,0.3,5.3,0.3h0.1c0.1,0,0.2,0,0.2,0c0,0,0.1,0,0.1,0
	c0.9,0,1.8-0.1,2.8-0.1c0.1,0,0.3,0,0.4,0c14.1-1.5,25.6-12.4,29.1-26.7C107.8,46.5,96.5,55.2,83.2,55.5z"/>
</svg>
